<?xml version="1.0" encoding="UTF-8" standalone="no"?>
<!-- Created with Inkscape (http://www.inkscape.org/) -->

<svg
   xmlns:dc="http://purl.org/dc/elements/1.1/"
   xmlns:cc="http://creativecommons.org/ns#"
   xmlns:rdf="http://www.w3.org/1999/02/22-rdf-syntax-ns#"
   xmlns:svg="http://www.w3.org/2000/svg"
   xmlns="http://www.w3.org/2000/svg"
   xmlns:sodipodi="http://sodipodi.sourceforge.net/DTD/sodipodi-0.dtd"
   xmlns:inkscape="http://www.inkscape.org/namespaces/inkscape"
   id="svg4340"
   height="48"
   viewBox="0 0 48 48.000001"
   width="48"
   version="1.1"
   sodipodi:docname="clonezilla.svg"
   inkscape:version="0.92.2 2405546, 2018-03-11">
  <sodipodi:namedview
     pagecolor="#ffffff"
     bordercolor="#666666"
     borderopacity="1"
     objecttolerance="10"
     gridtolerance="10"
     guidetolerance="10"
     inkscape:pageopacity="0"
     inkscape:pageshadow="2"
     inkscape:window-width="1920"
     inkscape:window-height="1054"
     id="namedview3990"
     showgrid="false"
     inkscape:zoom="4.9166667"
     inkscape:cx="24"
     inkscape:cy="24"
     inkscape:window-x="0"
     inkscape:window-y="0"
     inkscape:window-maximized="1"
     inkscape:current-layer="svg4340" />
  <defs
     id="defs4342">
    <linearGradient
       id="linearGradient6688"
       y2="24"
       gradientUnits="userSpaceOnUse"
       x2="-1"
       gradientTransform="translate(-.071909 -.071909)"
       y1="24"
       x1="-47">
      <stop
         id="stop7-75"
         style="stop-color:#186dae"
         offset="0" />
      <stop
         id="stop9-48"
         style="stop-color:#1b77bf"
         offset="1" />
    </linearGradient>
  </defs>
  <metadata
     id="metadata4345">
    <rdf:RDF>
      <cc:Work
         rdf:about="">
        <dc:format>image/svg+xml</dc:format>
        <dc:type
           rdf:resource="http://purl.org/dc/dcmitype/StillImage" />
        <dc:title></dc:title>
      </cc:Work>
    </rdf:RDF>
  </metadata>
  <g
     id="g21">
    <path
       id="path23"
       style="opacity:.02"
       d="m1 43v0.25c0 2.216 1.784 4 4 4h38c2.216 0 4-1.784 4-4v-0.25c0 2.216-1.784 4-4 4h-38c-2.216 0-4-1.784-4-4zm0 0.5v0.5c0 2.216 1.784 4 4 4h38c2.216 0 4-1.784 4-4v-0.5c0 2.216-1.784 4-4 4h-38c-2.216 0-4-1.784-4-4z" />
    <path
       id="path25"
       style="opacity:.05"
       d="m1 43.25v0.25c0 2.216 1.784 4 4 4h38c2.216 0 4-1.784 4-4v-0.25c0 2.216-1.784 4-4 4h-38c-2.216 0-4-1.784-4-4z" />
    <path
       id="path27"
       style="opacity:.1"
       d="m1 43v0.25c0 2.216 1.784 4 4 4h38c2.216 0 4-1.784 4-4v-0.25c0 2.216-1.784 4-4 4h-38c-2.216 0-4-1.784-4-4z" />
  </g>
  <rect
     id="rect4182"
     style="fill:url(#linearGradient6688)"
     rx="4"
     transform="rotate(-90)"
     height="46"
     width="46"
     y=".92809"
     x="-47.072" />
  <g
     id="g57">
    <g
       id="g59"
       transform="translate(0,-1004.4)">
      <path
         id="path61"
         style="opacity:.1"
         d="m1 1043.4v4c0 2.216 1.784 4 4 4h38c2.216 0 4-1.784 4-4v-4c0 2.216-1.784 4-4 4h-38c-2.216 0-4-1.784-4-4z" />
    </g>
  </g>
  <g
     id="g27"
     transform="translate(-.992 -1)">
    <g
       id="g29">
      <g
         id="g31"
         transform="translate(1,1)">
        <g
           id="g33"
           style="opacity:.1">
          <!-- color: #3d3d3d -->
          <g
             id="g35">
            <path
               id="path37"
               transform="translate(-1.004,-1)"
               d="m31 9.994-0.006 0.006h-11.994l-6 7-3-3v11h-0.004v5.867l0.004 0.004 9 9.129h11l7-7 3 3v-11h-0.088l0.088-0.006v-5.896l-9-9.104zm-6.967 6.438 8.254 8.568h-3.287l3 3-6.254 5.773-9.877-8.771 0.002-0.002h5.129l-3-3 6.03-5.568z" />
          </g>
        </g>
      </g>
    </g>
  </g>
  <g
     id="g39"
     transform="translate(.004 -1)">
    <g
       id="g41">
      <!-- color: #3d3d3d -->
      <g
         id="g43">
        <path
           id="path45"
           style="fill:#91beef"
           d="m31.746 24.477-8.746-9.08l7-6.402 9 9.102v5.898m-7.258 0.48" />
        <path
           id="path47"
           style="fill:#91beef"
           d="m18 39 7-6-10.133-9h-5.871v5.867m9 9.133" />
        <path
           id="path49"
           style="fill:#cde2f9"
           d="m9 24h11l-3-3 13-12h-12l-6 7-3-3m0 11" />
        <path
           id="path51"
           style="fill:#cde2f9"
           d="m18 39 13-12-3-3h11v11l-3-3-7 7m-11 0" />
        <path
           id="path53"
           style="fill:#5fa0e7"
           d="m9 29.871 5.871-5.871h-5.871m0 5.871" />
        <path
           id="path55"
           style="fill:#5fa0e7"
           d="m23 15.398h13.328l-6.328-6.398m-7 6.398" />
      </g>
    </g>
  </g>
  <text
     xml:space="preserve"
     style="font-style:normal;font-weight:normal;font-size:40px;line-height:1.25;font-family:sans-serif;letter-spacing:0px;word-spacing:0px;fill:#000000;fill-opacity:1;stroke:none;"
     x="2.0338984"
     y="13.016949"
     id="text3994"><tspan
       sodipodi:role="line"
       id="tspan3992"
       x="2.0338984"
       y="13.016949"
       style="font-size:14.66666698px;fill:#000000;">CZ</tspan></text>
  <g
     transform="matrix(0.52631579,0,0,0.56258149,25.846105,20.372881)"
     style="fill:#464646"
     id="g4327">
    <path
       inkscape:connector-curvature="0"
       d="m 15,11 c -1.108,0 -2,0.892 -2,2 v 22 c 0,1.108 0.892,2 2,2 h 18 c 1.108,0 2,-0.892 2,-2 V 13 c 0,-1.108 -0.892,-2 -2,-2 z m 1,2 h 16 c 0.554,0 1,0.446 1,1 v 20 c 0,0.554 -0.446,1 -1,1 H 16 c -0.554,0 -1,-0.446 -1,-1 V 14 c 0,-0.554 0.446,-1 1,-1 z"
       style="fill-rule:evenodd"
       id="path4321" />
    <path
       inkscape:connector-curvature="0"
       d="m 24,14 a 8,8 0 0 0 -8,8 8,8 0 0 0 8,8 8,8 0 0 0 8,-8 8,8 0 0 0 -8,-8 z m 0,6 a 2,2 0 0 1 2,2 2,2 0 0 1 -2,2 2,2 0 0 1 -2,-2 2,2 0 0 1 2,-2 z"
       id="path4323" />
    <path
       inkscape:connector-curvature="0"
       d="m 25,26 7,6 v 2 h -2 z"
       id="path4325" />
  </g>
</svg>
